<?xml version="1.0" encoding="UTF-8"?>
<svg id="Layer_1" data-name="Layer 1" xmlns="http://www.w3.org/2000/svg" xmlns:xlink="http://www.w3.org/1999/xlink" viewBox="0 0 1080 1080">
  <defs>
    <style>
      .cls-1 {
        fill: url(#linear-gradient-3);
      }

      .cls-2 {
        fill: url(#linear-gradient-2);
      }

      .cls-3 {
        fill: url(#linear-gradient);
      }

      .cls-4 {
        fill: #17164d;
      }

      .cls-5 {
        fill: #b21f2d;
      }

      .cls-6 {
        fill: #e92630;
      }
    </style>
    <linearGradient id="linear-gradient" x1="620.82" y1="445.79" x2="474.14" y2="445.79" gradientUnits="userSpaceOnUse">
      <stop offset="0" stop-color="#ef3933"/>
      <stop offset="1" stop-color="#88171c"/>
    </linearGradient>
    <linearGradient id="linear-gradient-2" x1="417.48" y1="438.83" x2="598.52" y2="438.83" xlink:href="#linear-gradient"/>
    <linearGradient id="linear-gradient-3" x1="-6081.71" y1="-8782.92" x2="-6183.7" y2="-8624.52" gradientTransform="translate(4531.28 -9376.92) rotate(-122.78)" xlink:href="#linear-gradient"/>
  </defs>
  <g>
    <g>
      <path class="cls-4" d="M530.93,424.64l-.49-.34c.23.22.41.36.49.34Z"/>
      <g>
        <path class="cls-4" d="M535.99,500.38l.49-.34c-.28.14-.48.26-.49.34Z"/>
        <path class="cls-5" d="M586.71,457.94c21.33-14.61,22.21-20.35,3.65-34.29-29.95-22.5-50.08-27.77-70.54-36.03,27.38,15.23,63.9,38.96,60.83,55.69-4.86,26.51-50.68,38.91-50.68,38.91.67-.05,8.2-1.4,16.08-4.82,4.96-2.15,27.13-10.17,40.67-19.45Z"/>
      </g>
      <path class="cls-3" d="M490.92,372.69s12.89,6.01,28.9,14.92c20.47,8.27,40.59,13.53,70.54,36.03,18.56,13.95,17.68,19.68-3.65,34.29-13.54,9.28-35.72,17.3-40.67,19.45-7.87,3.42-15.41,4.77-16.08,4.82-3.53.24-6.93-.43-10.23-1.53-2.85-.95-5.67-1.97-8.65-2.46-1.53-.25-3.05-.21-4.56.3-1.47.5-2.96.94-4.44,1.42-.25.08-.51.19-.73.34-.75.49-.9.91-.66,1.76.34,1.16.68,2.33,1.03,3.49.13.45.26.9.41,1.4-.29.09-.51.16-.72.23-3.62,1.16-7.25,2.32-10.87,3.48-.57.18-1.11.39-1.49.9-.62.84-.66,1.89-.09,2.73.54.78,1.53,1.1,2.53.78,3.18-1.01,6.36-2.03,9.55-3.04.76-.24,1.52-.49,2.32-.74,1.69,5.78,3.36,11.51,5.05,17.29-.22.07-.42.14-.62.2-3.74,1.19-7.49,2.38-11.23,3.58-1.58.51-2.2,2.29-1.27,3.56.6.81,1.58,1.06,2.76.68,3.66-1.17,7.32-2.34,10.97-3.51.2-.06.4-.13.68-.22.08.27.13.45.19.63.43,1.47.88,2.93,1.28,4.4.16.59.53.91,1.09.97.39.04.82.03,1.2-.08,1.62-.49,3.26-.96,4.85-1.56.89-.34,1.75-.83,2.51-1.41,1.75-1.32,3.1-3.03,4.45-4.74,1.58-2,3.06-4.08,4.72-6.01,1.64-1.91,6.03-4.78,6.01-4.68.01-.08.21-.21.49-.34.85-.4,2.52-.94,2.76-1.04,9.85-4.13,19.74-8.14,29.44-12.61,10.21-4.7,20.34-9.79,29.68-16.07,7.07-4.76,14.99-10.69,18.4-18.8.56-1.33.98-2.72,1.18-4.15,5.37-37.62-96.53-69.15-127.03-74.68Z"/>
      <g>
        <path class="cls-5" d="M473.41,392c-21.16-14.86-26.84-13.68-33.4,8.59-10.59,35.93-8.47,56.63-9.04,78.7,4.68-30.98,14.11-73.49,30.85-76.48,26.54-4.73,54.2,33.84,54.2,33.84-.28-.61-4.18-7.19-10.14-13.37-3.75-3.89-19.03-21.85-32.47-31.28Z"/>
        <path class="cls-2" d="M559.38,454.5c-2.38-3.02-4.75-6.03-7.13-9.05-.13-.17-.26-.33-.44-.56.22-.17.38-.28.53-.4,1.22-.92,2.44-1.85,3.68-2.74.5-.36.67-.81.53-1.36-.1-.38-.25-.78-.49-1.09-1.02-1.35-2.04-2.72-3.15-3.99-.62-.71-1.39-1.35-2.2-1.86-1.85-1.17-3.93-1.84-6-2.5-2.43-.78-4.89-1.44-7.28-2.31-2.36-.86-6.59-3.97-6.49-3.99-.08.02-.26-.12-.49-.34-.67-.65-1.76-2.03-1.94-2.22-7.31-7.78-14.54-15.64-22.12-23.16-7.98-7.92-16.29-15.62-25.45-22.17-6.93-4.95-15.26-10.29-24.05-10.65-1.44-.06-2.89.04-4.3.35-37.12,8.15-30.96,114.63-25.45,145.14,0,0,1.11-14.18,3.85-32.29.58-22.06-1.54-42.76,9.04-78.7,6.56-22.27,12.24-23.45,33.4-8.59,13.44,9.44,28.71,27.39,32.47,31.28,5.96,6.18,9.86,12.76,10.14,13.37,1.46,3.22,2.02,6.64,2.15,10.11.11,3,.14,6,.73,8.97.3,1.52.87,2.93,1.88,4.17.98,1.21,1.92,2.44,2.89,3.66.16.21.36.41.57.56.72.53,1.17.53,1.88,0,.97-.72,1.94-1.46,2.91-2.18.37-.28.75-.56,1.17-.88.19.24.33.42.47.6,2.36,2.99,4.71,5.98,7.07,8.96.37.47.76.9,1.37,1.08,1.01.29,2.01-.04,2.59-.87.54-.78.49-1.82-.16-2.64-2.06-2.63-4.13-5.25-6.2-7.88-.49-.63-.99-1.26-1.51-1.91,4.82-3.61,9.6-7.18,14.42-10.79.14.18.27.35.4.51,2.43,3.09,4.85,6.18,7.29,9.26,1.03,1.3,2.91,1.26,3.78-.06.55-.84.44-1.85-.33-2.83Z"/>
      </g>
      <g>
        <path class="cls-5" d="M461.93,526.3c-1.04,25.83,3.03,29.97,25.31,23.43,35.94-10.55,52.2-23.54,71.06-35-28.58,12.84-69.43,27.92-81.01,15.46-18.35-19.75-.89-63.89-.89-63.89-.36.56-3.79,7.41-5.75,15.76-1.24,5.26-8.06,27.83-8.72,44.23Z"/>
        <path class="cls-1" d="M467.94,420.19c-1.25,3.63-2.5,7.26-3.75,10.89-.07.2-.14.4-.23.68-.26-.1-.44-.16-.62-.23-1.43-.53-2.87-1.05-4.29-1.61-.57-.23-1.04-.12-1.43.29-.27.29-.52.64-.65,1.01-.58,1.59-1.18,3.18-1.65,4.81-.26.91-.38,1.9-.37,2.85.01,2.19.58,4.3,1.14,6.4.66,2.46,1.44,4.89,2,7.38.55,2.46.23,7.69.16,7.62.06.06.04.29-.02.6-.18.92-.75,2.58-.82,2.83-2.58,10.36-5.28,20.69-7.5,31.14-2.34,10.99-4.32,22.15-4.86,33.4-.41,8.51-.39,18.4,4.06,25.99.73,1.24,1.6,2.41,2.62,3.43,26.95,26.79,113.14-36.03,135.81-57.17,0,0-12.52,6.74-29.24,14.24-18.86,11.46-35.12,24.45-71.06,35-22.28,6.54-26.34,2.4-25.31-23.43.66-16.4,7.49-38.97,8.72-44.23,1.97-8.36,5.39-15.2,5.75-15.76,1.92-2.97,4.49-5.3,7.34-7.28,2.46-1.71,4.96-3.37,7.14-5.46,1.12-1.08,2-2.32,2.49-3.83.48-1.48,1.01-2.94,1.51-4.41.09-.25.15-.52.17-.78.06-.89-.19-1.27-1.02-1.58-1.14-.42-2.27-.84-3.41-1.26-.44-.16-.88-.33-1.37-.51.1-.29.17-.5.25-.72,1.24-3.6,2.47-7.2,3.71-10.79.19-.56.35-1.13.17-1.73-.3-1-1.12-1.66-2.13-1.7-.95-.04-1.79.57-2.14,1.56-1.09,3.16-2.18,6.31-3.27,9.47-.26.76-.52,1.51-.79,2.3-5.65-2.1-11.23-4.18-16.88-6.29.08-.22.14-.42.21-.62,1.28-3.71,2.57-7.43,3.84-11.15.54-1.57-.52-3.13-2.09-3.14-1.01,0-1.79.63-2.2,1.81Z"/>
      </g>
    </g>
    <g>
      <path class="cls-6" d="M932.86,608.92c-1.61,0-3.09-.27-4.46-.82-1.37-.55-2.55-1.3-3.55-2.26-1-.96-1.78-2.1-2.33-3.4-.55-1.31-.83-2.74-.83-4.28s.28-2.94.83-4.25c.55-1.31,1.33-2.44,2.33-3.39,1-.95,2.19-1.7,3.55-2.24,1.37-.54,2.85-.82,4.46-.82s3.1.27,4.47.82c1.38.55,2.57,1.29,3.58,2.24s1.8,2.08,2.36,3.39.85,2.73.85,4.25-.28,2.97-.85,4.28-1.35,2.44-2.36,3.4c-1.01.96-2.2,1.71-3.58,2.26-1.38.55-2.87.82-4.47.82ZM932.86,607.47c1.35,0,2.61-.23,3.78-.68,1.17-.46,2.18-1.09,3.05-1.9.86-.81,1.54-1.79,2.04-2.93.5-1.14.74-2.38.74-3.73s-.24-2.53-.73-3.66c-.49-1.13-1.16-2.11-2.01-2.94-.85-.83-1.86-1.49-3.03-1.96-1.17-.48-2.45-.71-3.84-.71s-2.66.24-3.82.71-2.16,1.13-3,1.96c-.84.83-1.5,1.81-1.98,2.93-.47,1.12-.71,2.32-.71,3.61s.24,2.53.71,3.66c.48,1.13,1.14,2.12,1.98,2.96.84.84,1.84,1.5,3,1.98,1.16.48,2.43.71,3.82.71ZM928.05,591.59h5.8c.59,0,1.15.13,1.66.39.51.26.95.59,1.32,1.01.37.42.65.88.86,1.4.21.52.31,1.04.31,1.58,0,.81-.22,1.58-.65,2.29-.44.71-1.01,1.21-1.72,1.49l3.06,4.94h-3.18l-2.74-4.4h-1.9v4.4h-2.82v-13.08ZM933.61,597.83c.5,0,.89-.16,1.17-.49.29-.33.43-.79.43-1.38,0-.63-.16-1.1-.49-1.41-.33-.31-.72-.46-1.17-.46h-2.68v3.75h2.74Z"/>
      <g>
        <g>
          <path class="cls-6" d="M579.32,664.01h-43.46c-1.66,0-3.48-.3-5.46-.89-1.98-.59-3.81-1.55-5.5-2.89-1.68-1.34-3.08-3.08-4.21-5.23-1.14-2.15-1.69-4.78-1.69-7.89v-43.46c0-.84.16-1.63.46-2.37.32-.74.73-1.39,1.28-1.94.54-.55,1.17-.98,1.91-1.3.74-.3,1.55-.46,2.42-.46h54.25v12.05h-48.27v37.48c0,1.57.41,2.77,1.25,3.61.82.84,2.06,1.25,3.65,1.25h43.36v12.05ZM573.9,636.86h-38.04v-12.13h38.04v12.13ZM507.68,657.94c0,.87-.16,1.68-.46,2.42-.32.73-.74,1.38-1.28,1.91-.54.54-1.19.96-1.93,1.28-.73.3-1.53.46-2.4.46h-43.46c-1.11,0-2.31-.13-3.59-.4-1.28-.27-2.55-.66-3.8-1.23-1.25-.55-2.45-1.27-3.59-2.15-1.15-.87-2.17-1.95-3.04-3.19-.89-1.25-1.58-2.7-2.1-4.35-.54-1.66-.79-3.51-.79-5.58v-32.63c0-1.11.13-2.31.4-3.59.25-1.28.66-2.55,1.22-3.8.55-1.25,1.28-2.45,2.18-3.59.9-1.14,1.96-2.15,3.23-3.04,1.25-.89,2.69-1.58,4.32-2.1,1.64-.54,3.5-.79,5.57-.79h48.98v12.05h-48.98c-1.58,0-2.78.41-3.61,1.25-.84.82-1.26,2.07-1.26,3.7v32.53c0,1.53.43,2.74,1.28,3.59.85.84,2.04,1.27,3.59,1.27h37.48v-15.1h-32.06v-12.13h38.04c.87,0,1.68.16,2.4.47.74.33,1.39.78,1.93,1.33.54.55.97,1.2,1.28,1.91.3.73.46,1.52.46,2.34v27.15ZM430.03,619.9c0,2.75-.35,5.2-1.03,7.37-.68,2.15-1.6,4.06-2.75,5.73-1.15,1.64-2.5,3.05-4.02,4.24-1.5,1.17-3.08,2.14-4.74,2.89-1.64.76-3.32,1.3-5,1.64-1.69.33-3.27.51-4.76.51l25.16,21.73h-18.61l-25.11-21.73h-8.67v-12.05h27.23c1.52-.13,2.91-.44,4.16-.95,1.25-.51,2.32-1.19,3.24-2.06.9-.87,1.61-1.91,2.1-3.13.49-1.22.74-2.61.74-4.19v-7.61c0-.68-.08-1.19-.25-1.55-.17-.35-.4-.62-.65-.77-.27-.17-.54-.29-.84-.32-.3-.02-.57-.03-.81-.03h-39.76v54.39h-12.05v-60.37c0-.84.16-1.63.47-2.37.3-.74.73-1.39,1.26-1.94.54-.55,1.19-.98,1.93-1.3.74-.3,1.53-.46,2.4-.46h45.74c2.69,0,4.95.49,6.8,1.46,1.87.98,3.37,2.2,4.52,3.67,1.15,1.46,1.99,3.04,2.5,4.74.52,1.69.77,3.29.77,4.78v7.69ZM297.13,635.65h42.35v-26.03h-21.18c-.38,0-1.15.05-2.34.16-1.19.11-2.56.38-4.13.81-1.55.43-3.19,1.09-4.93,1.99-1.72.9-3.32,2.13-4.78,3.7-1.44,1.58-2.64,3.56-3.59,5.91-.93,2.36-1.41,5.23-1.41,8.59v4.87ZM351.52,664.01h-12.04v-16.31h-42.35v16.31h-12.05v-33.23c0-4.84.84-9.3,2.5-13.38,1.68-4.08,3.99-7.59,6.96-10.52,2.96-2.94,6.47-5.22,10.52-6.86,4.05-1.63,8.46-2.45,13.25-2.45h27.15c.82,0,1.61.16,2.36.46.74.32,1.39.74,1.95,1.3.55.55,1,1.2,1.3,1.94.32.74.46,1.53.46,2.37v60.37ZM218.85,624.73h42.31v-27.15h12.04v66.44h-12.04v-27.15h-42.31v27.15h-12.05v-66.44h12.05v27.15ZM196.26,664.01h-43.46c-1.11,0-2.31-.13-3.59-.4-1.28-.27-2.55-.66-3.8-1.23-1.25-.55-2.45-1.27-3.59-2.15-1.15-.87-2.17-1.95-3.04-3.19-.89-1.25-1.58-2.7-2.1-4.35-.54-1.66-.79-3.51-.79-5.58v-32.63c0-1.11.13-2.31.4-3.59.25-1.28.66-2.55,1.22-3.8.55-1.25,1.28-2.45,2.18-3.59.9-1.14,1.96-2.15,3.23-3.04,1.25-.89,2.69-1.58,4.32-2.1,1.64-.54,3.5-.79,5.57-.79h43.46v12.05h-43.46c-1.58,0-2.78.41-3.61,1.25-.84.82-1.26,2.07-1.26,3.7v32.53c0,1.53.43,2.74,1.28,3.59.85.84,2.04,1.27,3.59,1.27h43.46v12.05Z"/>
          <g>
            <path class="cls-6" d="M902.91,606.17v-7.54h-54.11c-.56,0-1.1.1-1.58.29-.44.19-.82.45-1.14.77-.34.34-.6.74-.83,1.26-.18.45-.28.96-.28,1.49v45.38c0,2.84.5,5.21,1.47,7.06,1,1.92,2.26,3.49,3.74,4.68,1.5,1.19,3.14,2.05,4.88,2.57,1.84.55,3.52.82,4.98.82h42.85v-7.54h-42.75c-2.38,0-4.27-.69-5.61-2.06-1.34-1.34-2.03-3.21-2.03-5.53v-10.7c0-1.39,1.13-2.52,2.52-2.52h27.6v-7.62h-27.6c-1.39,0-2.52-1.13-2.52-2.52v-15.77c0-1.39,1.13-2.52,2.52-2.52h47.87Z"/>
            <path class="cls-6" d="M770.44,614.27c.3-.12.61-.18.94-.18.69,0,1.35.28,1.82.78l45.95,47.98c.35.37.73.63,1.13.77,1.09.41,2.03.41,2.98,0,.49-.2.89-.46,1.22-.78.33-.33.6-.74.83-1.26.19-.46.29-.97.29-1.48v-61.48h-7.54v46.34c0,1.03-.62,1.95-1.58,2.34-.96.39-2.04.16-2.76-.59l-45.95-47.95c-.54-.55-1.16-.88-1.88-1.01-.81-.16-1.52-.09-2.25.21-.66.3-1.23.78-1.68,1.44-.44.63-.65,1.29-.65,2.07v61.48h7.54v-46.34c0-1.04.62-1.96,1.58-2.34Z"/>
          </g>
          <path class="cls-6" d="M737.37,605.13c-2.36-2.33-5.17-4.17-8.36-5.48-3.21-1.32-6.77-1.99-10.57-1.99h-17.04c-3.81,0-7.37.67-10.6,1.99-3.21,1.31-6.02,3.16-8.36,5.48-2.32,2.28-4.17,5.1-5.52,8.36-1.33,3.23-2,6.82-2,10.68v13.26c0,3.88.67,7.48,2,10.69,1.36,3.28,3.16,6.01,5.52,8.36,2.35,2.36,5.08,4.15,8.35,5.48,3.25,1.31,6.82,1.98,10.61,1.98h17.04c3.79,0,7.35-.67,10.58-1.98,3.26-1.32,5.99-3.12,8.35-5.47,2.33-2.33,4.18-5.14,5.49-8.35,1.32-3.23,1.99-6.83,1.99-10.7v-13.26c0-3.85-.67-7.44-1.99-10.69-1.33-3.24-3.17-6.05-5.49-8.35ZM737.31,637.42c0,2.78-.46,5.36-1.36,7.66-.91,2.33-2.24,4.37-3.94,6.05-1.65,1.66-3.69,2.97-6.04,3.89-2.32.91-4.88,1.36-7.63,1.36h-16.94c-2.75,0-5.31-.46-7.61-1.36-2.34-.92-4.37-2.23-6.05-3.89-1.71-1.69-3.03-3.73-3.94-6.06-.9-2.3-1.36-4.87-1.36-7.65v-13.26c0-2.79.46-5.38,1.36-7.68.92-2.32,2.24-4.36,3.94-6.04,1.68-1.66,3.72-2.97,6.05-3.89,2.3-.91,4.86-1.36,7.61-1.36h17.04c2.71,0,5.26.46,7.56,1.37,2.33.91,4.37,2.22,6.05,3.9,1.67,1.67,2.98,3.7,3.9,6.03.91,2.3,1.36,4.89,1.36,7.68v13.26Z"/>
          <path class="cls-6" d="M605.43,662.33c.64.42,1.28.62,2.02.62h54.16v-7.54h-40c-.99,0-1.9-.59-2.3-1.49-.4-.91-.24-1.97.43-2.71l41.51-46.29c.53-.55.81-1.12.92-1.85.13-.8.05-1.48-.25-2.2-.3-.65-.77-1.19-1.43-1.63-.62-.41-1.28-.62-2.02-.62h-54.26v7.54h40.1c.99,0,1.9.59,2.3,1.5.41.91.24,1.97-.43,2.71l-41.59,46.28c-.49.55-.79,1.19-.93,1.95-.11.69-.02,1.34.3,1.98.34.74.8,1.29,1.47,1.74Z"/>
        </g>
        <g>
          <path class="cls-6" d="M252.44,712.8c0,.44-.22.66-.66.66h-3.91c-.44,0-.66-.22-.66-.66v-25.9c0-.44.22-.66.66-.66h9.55c1.91,0,3.59.38,5.03,1.14,1.44.76,2.55,1.83,3.33,3.2.78,1.37,1.17,2.93,1.17,4.67v.02c0,1.77-.38,3.34-1.14,4.7-.76,1.36-1.86,2.42-3.28,3.19-1.43.76-3.11,1.14-5.05,1.14h-5.04v8.5ZM257.26,699.57c.9,0,1.7-.19,2.37-.56.68-.37,1.2-.88,1.56-1.53.36-.65.54-1.36.54-2.15v-.02c0-.87-.18-1.62-.55-2.28-.37-.65-.89-1.16-1.56-1.51-.67-.36-1.45-.53-2.34-.53h-4.84v8.58h4.82Z"/>
          <path class="cls-6" d="M281.64,712.57c-1.71-.9-3.01-2.22-3.89-3.97-.88-1.75-1.33-3.88-1.33-6.38v-4.77c0-2.51.44-4.63,1.33-6.38.88-1.75,2.18-3.07,3.89-3.97,1.71-.9,3.79-1.35,6.23-1.35s4.54.45,6.25,1.35c1.71.9,3.01,2.22,3.89,3.97.88,1.75,1.33,3.88,1.33,6.38v4.77c0,2.51-.44,4.63-1.33,6.38-.88,1.75-2.18,3.07-3.89,3.97-1.71.9-3.79,1.35-6.25,1.35s-4.52-.45-6.23-1.35ZM294.03,701.75v-3.84c0-2.49-.53-4.33-1.59-5.51s-2.58-1.77-4.57-1.77c-4.09,0-6.14,2.43-6.14,7.28v3.84c0,4.84,2.05,7.27,6.14,7.27s6.16-2.42,6.16-7.27Z"/>
          <path class="cls-6" d="M316.29,713.46c-.37,0-.62-.19-.74-.56l-7.85-25.9c-.03-.1-.04-.18-.04-.23,0-.17.05-.3.16-.39.1-.09.25-.14.45-.14h4.15c.36,0,.59.19.7.58l4.84,17.92.15,1.08h.06l.14-1.08,5.31-17.94c.08-.37.32-.56.72-.56h4.11c.19,0,.34.05.45.14.1.09.15.21.15.37,0,.04-.01.12-.04.25l-2.87,8.95,3.29,8.8.19,1.08h.06l.17-1.08,4.77-17.92c.1-.39.34-.58.72-.58h4.15c.19,0,.34.05.45.14.1.09.15.21.15.37,0,.04-.01.12-.04.25l-7.92,25.9c-.09.37-.34.56-.74.56h-3.37c-.37,0-.63-.18-.76-.54l-3.22-9.67-.14-.95h-.08l-.16.95-3.24,9.67c-.12.36-.37.54-.76.54h-3.39Z"/>
          <path class="cls-6" d="M368.62,712.8c0,.44-.22.66-.66.66h-16.85c-.44,0-.66-.22-.66-.66v-25.9c0-.44.22-.66.66-.66h16.56c.44,0,.66.22.66.66v3.43c0,.44-.22.66-.66.66h-11.99v6.41h9.01c.43,0,.64.21.64.64v2.85c0,.45-.21.68-.64.68h-9.01v7.15h12.28c.44,0,.66.22.66.66v3.43Z"/>
          <path class="cls-6" d="M380.26,713.46c-.44,0-.66-.22-.66-.66v-25.9c0-.44.22-.66.66-.66h9.55c1.91,0,3.59.38,5.03,1.14,1.44.76,2.55,1.83,3.33,3.2.78,1.37,1.17,2.93,1.17,4.67s-.39,3.39-1.18,4.78c-.79,1.39-1.91,2.46-3.35,3.21l4.73,9.45c.06.13.1.25.1.35,0,.13-.05.23-.15.31-.1.08-.25.12-.43.12h-4.49c-.36,0-.62-.16-.78-.48l-4.17-8.7c-.37.05-.83.08-1.36.08h-3.43v8.45c0,.44-.22.66-.66.66h-3.91ZM389.66,699.62c.9,0,1.7-.19,2.37-.56.68-.37,1.2-.89,1.56-1.55.36-.66.54-1.4.54-2.23s-.18-1.6-.55-2.26c-.37-.65-.89-1.16-1.56-1.51-.67-.36-1.45-.53-2.34-.53h-4.84v8.64h4.82Z"/>
          <path class="cls-6" d="M415.85,712.8c0,.44-.22.66-.66.66h-3.91c-.44,0-.66-.22-.66-.66v-25.9c0-.44.22-.66.66-.66h3.91c.44,0,.66.22.66.66v25.9Z"/>
          <path class="cls-6" d="M433.46,712.78c0,.45-.23.68-.68.68h-3.97c-.43,0-.64-.23-.64-.68v-25.86c0-.45.21-.68.64-.68h3.76c.32,0,.59.15.81.45l10.77,16.06.52,1.24h.06l-.12-.95v-16.12c0-.45.22-.68.66-.68h3.95c.44,0,.66.23.66.68v25.86c0,.45-.21.68-.64.68h-3.41c-.35,0-.61-.14-.78-.41l-11.08-16.43-.6-1.39h-.08l.16,1.1v16.45Z"/>
          <path class="cls-6" d="M466.48,712.57c-1.69-.9-2.97-2.23-3.84-3.97s-1.32-3.87-1.32-6.37v-4.77c0-2.51.44-4.63,1.32-6.37s2.16-3.07,3.84-3.97c1.69-.9,3.73-1.36,6.13-1.36,1.6,0,3.07.27,4.41.81,1.34.54,2.48,1.32,3.42,2.33.94,1.01,1.64,2.22,2.09,3.61l.02.02c.04.09.06.19.06.29,0,.14-.04.26-.12.37-.08.1-.19.18-.33.23l-3.54,1.08c-.09.04-.18.06-.27.06-.23,0-.39-.12-.48-.37l-.02-.04c-.37-1.06-1.01-1.91-1.9-2.56-.89-.65-1.95-.97-3.18-.97-4.09,0-6.14,2.43-6.14,7.28v3.86c0,4.83,2.04,7.25,6.12,7.25,1.08,0,2.04-.18,2.86-.53.82-.36,1.47-.86,1.95-1.52.48-.66.75-1.43.81-2.32v-1.12h-4.75c-.22,0-.39-.06-.5-.17-.12-.12-.17-.28-.17-.48v-2.89c0-.22.06-.39.17-.5.12-.12.28-.17.5-.17h8.81c.44,0,.66.23.66.68v2.91c0,3.51-.88,6.23-2.65,8.16-1.76,1.92-4.37,2.89-7.84,2.89-2.4,0-4.45-.45-6.13-1.36Z"/>
          <path class="cls-6" d="M521.73,712.8c0,.44-.22.66-.66.66h-3.91c-.44,0-.66-.22-.66-.66v-21.68h-7.23c-.44,0-.66-.22-.66-.66v-3.56c0-.44.22-.66.66-.66h19.7c.21,0,.37.06.49.17.12.12.17.28.17.48v3.56c0,.21-.06.37-.17.48-.12.12-.28.17-.49.17h-7.25v21.68Z"/>
          <path class="cls-6" d="M545.3,712.8c0,.44-.22.66-.66.66h-3.91c-.44,0-.66-.22-.66-.66v-25.9c0-.44.22-.66.66-.66h3.91c.44,0,.66.22.66.66v10.11h11.04v-10.11c0-.21.06-.37.17-.48.12-.12.28-.17.5-.17h3.91c.44,0,.66.22.66.66v25.9c0,.44-.22.66-.66.66h-3.91c-.22,0-.39-.06-.5-.17s-.17-.28-.17-.48v-10.77h-11.04v10.77Z"/>
          <path class="cls-6" d="M592.09,712.8c0,.44-.22.66-.66.66h-16.85c-.44,0-.66-.22-.66-.66v-25.9c0-.44.22-.66.66-.66h16.56c.44,0,.66.22.66.66v3.43c0,.44-.22.66-.66.66h-11.99v6.41h9.01c.43,0,.64.21.64.64v2.85c0,.45-.21.68-.64.68h-9.01v7.15h12.28c.44,0,.66.22.66.66v3.43Z"/>
          <path class="cls-6" d="M625.06,712.8c0,.44-.22.66-.66.66h-3.91c-.44,0-.66-.22-.66-.66v-25.9c0-.44.22-.66.66-.66h16.12c.21,0,.36.06.47.17.11.12.16.28.16.48v3.43c0,.21-.06.37-.16.48-.11.12-.27.17-.47.17h-11.55v7.52h8.54c.21,0,.37.06.49.17s.17.28.17.48v3.16c0,.21-.06.37-.17.48s-.28.17-.49.17h-8.54v9.82Z"/>
          <path class="cls-6" d="M650.03,710.92c-1.76-2-2.64-4.88-2.64-8.62v-15.4c0-.44.23-.66.68-.66h3.89c.44,0,.66.22.66.66v15.54c0,2.05.42,3.66,1.27,4.83.85,1.17,2.21,1.75,4.1,1.75,3.56,0,5.35-2.2,5.35-6.59v-15.54c0-.44.22-.66.66-.66h3.91c.44,0,.66.22.66.66v15.4c0,3.75-.89,6.62-2.67,8.62-1.78,2-4.43,3-7.94,3s-6.15-1-7.92-3Z"/>
          <path class="cls-6" d="M691.61,712.8c0,.44-.22.66-.66.66h-3.91c-.44,0-.66-.22-.66-.66v-21.68h-7.23c-.44,0-.66-.22-.66-.66v-3.56c0-.44.22-.66.66-.66h19.7c.21,0,.37.06.49.17.12.12.17.28.17.48v3.56c0,.21-.06.37-.17.48-.12.12-.28.17-.49.17h-7.25v21.68Z"/>
          <path class="cls-6" d="M712.08,710.92c-1.76-2-2.64-4.88-2.64-8.62v-15.4c0-.44.23-.66.68-.66h3.89c.44,0,.66.22.66.66v15.54c0,2.05.42,3.66,1.27,4.83.85,1.17,2.21,1.75,4.1,1.75,3.56,0,5.35-2.2,5.35-6.59v-15.54c0-.44.22-.66.66-.66h3.91c.44,0,.66.22.66.66v15.4c0,3.75-.89,6.62-2.67,8.62-1.78,2-4.43,3-7.94,3s-6.15-1-7.92-3Z"/>
          <path class="cls-6" d="M743.07,713.46c-.44,0-.66-.22-.66-.66v-25.9c0-.44.22-.66.66-.66h9.55c1.91,0,3.59.38,5.03,1.14,1.44.76,2.55,1.83,3.33,3.2.78,1.37,1.17,2.93,1.17,4.67s-.39,3.39-1.18,4.78c-.79,1.39-1.91,2.46-3.35,3.21l4.73,9.45c.06.13.1.25.1.35,0,.13-.05.23-.15.31-.1.08-.25.12-.43.12h-4.49c-.36,0-.62-.16-.78-.48l-4.17-8.7c-.37.05-.83.08-1.36.08h-3.43v8.45c0,.44-.22.66-.66.66h-3.91ZM752.46,699.62c.9,0,1.7-.19,2.37-.56.68-.37,1.2-.89,1.56-1.55.36-.66.54-1.4.54-2.23s-.18-1.6-.55-2.26c-.37-.65-.89-1.16-1.56-1.51-.67-.36-1.45-.53-2.34-.53h-4.84v8.64h4.82Z"/>
          <path class="cls-6" d="M791.6,712.8c0,.44-.22.66-.66.66h-16.85c-.44,0-.66-.22-.66-.66v-25.9c0-.44.22-.66.66-.66h16.56c.44,0,.66.22.66.66v3.43c0,.44-.22.66-.66.66h-11.99v6.41h9.01c.43,0,.64.21.64.64v2.85c0,.45-.21.68-.64.68h-9.01v7.15h12.28c.44,0,.66.22.66.66v3.43Z"/>
        </g>
      </g>
    </g>
  </g>
  <g>
    <rect class="cls-6" x="135.87" y="699.31" width="76.6" height="2.76"/>
    <rect class="cls-6" x="826.62" y="699.31" width="76.6" height="2.76"/>
  </g>
</svg>